<svg width="33" height="46" viewBox="0 0 33 46" fill="none" xmlns="http://www.w3.org/2000/svg">
<path d="M31.566 15.263C31.566 18.2261 30.6873 21.1227 29.0411 23.5865C27.3949 26.0502 25.0551 27.9705 22.3176 29.1045C19.58 30.2385 16.5677 30.5352 13.6615 29.9572C10.7553 29.3792 8.08578 27.9524 5.99047 25.8572C3.89516 23.7621 2.46819 21.0926 1.88999 18.1865C1.3118 15.2803 1.60835 12.268 2.74215 9.53033C3.87595 6.79271 5.79607 4.45278 8.25971 2.80642C10.7234 1.16005 13.6199 0.281204 16.583 0.281006C20.5566 0.281006 24.3674 1.85943 27.1772 4.66907C29.9871 7.47871 31.5657 11.2894 31.566 15.263V15.263Z" fill="#FFD283"/>
<path d="M32.758 19.099C32.7392 19.0785 32.7188 19.0594 32.697 19.042C30.5052 17.4259 27.8581 16.5448 25.135 16.525C26.4381 15.8823 27.562 14.9271 28.4065 13.7446C29.251 12.5622 29.7898 11.1892 29.975 9.748C30.038 9.075 30.02 8.235 29.612 8.085C28.6029 7.71116 27.5287 7.54504 26.4539 7.59659C25.379 7.64814 24.3256 7.91631 23.357 8.385C22.0053 9.04386 20.8242 10.0062 19.906 11.197C20.1933 9.64599 20.155 8.05218 19.7935 6.51676C19.432 4.98135 18.7552 3.53788 17.806 2.278C17.12 1.523 16.66 1.547 16.389 1.704C13.321 3.536 11.821 7.353 12.223 11.599C10.1009 8.9333 7.00805 7.21821 3.62299 6.83C3.32899 6.805 2.96099 6.976 2.82299 7.887C2.67904 9.67549 2.99144 11.4712 3.73092 13.1061C4.4704 14.7409 5.61276 16.1612 7.05099 17.234C4.69892 17.359 2.44267 18.2065 0.589989 19.661C0.393309 19.808 0.260956 20.0252 0.220528 20.2674C0.1801 20.5096 0.234722 20.7581 0.372994 20.961C1.08499 22.303 4.41799 24.006 9.40699 22.975C8.80092 23.8965 8.3468 24.9094 8.06199 25.975C6.75399 30.524 7.82298 31.693 8.33498 32.254C8.37059 32.2896 8.40399 32.3273 8.43499 32.367C8.64299 32.784 9.28298 32.644 9.49398 32.598C11.016 32.266 13.612 30.687 14.838 26.989C15.259 29.1682 16.4138 31.1375 18.11 32.569L18.553 32.922C22.682 36.208 25.667 38.582 25.859 45.094C25.8626 45.1982 25.9061 45.297 25.9806 45.37C26.0551 45.443 26.1547 45.4845 26.259 45.486H26.271C26.3244 45.4851 26.3771 45.4735 26.4259 45.452C26.4748 45.4304 26.5188 45.3993 26.5554 45.3604C26.5921 45.3215 26.6206 45.2757 26.6392 45.2257C26.6578 45.1756 26.6663 45.1224 26.664 45.069C26.6919 42.5283 26.0119 40.03 24.7 37.854H24.708C24.785 37.8544 24.8605 37.8321 24.925 37.79C25.8715 37.2446 26.5867 36.3727 26.9365 35.3377C27.2863 34.3028 27.2466 33.1758 26.825 32.168C26.8027 32.1186 26.7707 32.0743 26.7308 32.0377C26.6909 32.0011 26.6441 31.973 26.593 31.955C26.5419 31.9368 26.4876 31.9292 26.4334 31.9326C26.3793 31.9361 26.3264 31.9505 26.278 31.975C25.3617 32.4204 24.6408 33.1867 24.252 34.1285C23.8633 35.0702 23.8337 36.1219 24.169 37.084C22.6744 35.2725 20.9545 33.6594 19.051 32.284L18.61 31.932C16.097 29.932 15.458 26.727 15.352 24.751C15.4339 24.1742 15.4843 23.5933 15.503 23.011C15.496 22.876 15.478 22.522 15.14 22.457C15.0455 22.4443 14.9494 22.4618 14.8655 22.5071C14.7816 22.5523 14.7142 22.623 14.673 22.709C14.5114 23.3918 14.4645 24.0968 14.534 24.795C14.3013 27.0889 13.1936 29.2049 11.441 30.703C10.7632 31.2965 9.9348 31.6917 9.04699 31.845C9.00999 31.798 8.96898 31.753 8.92498 31.704C8.54298 31.286 7.64799 30.304 8.82499 26.192C9.13674 24.8537 9.80147 23.6233 10.75 22.629C11.164 22.509 11.583 22.372 12.015 22.214C12.445 21.999 12.453 21.721 12.423 21.574C12.3925 21.4579 12.3226 21.356 12.2251 21.2859C12.1276 21.2158 12.0088 21.1819 11.889 21.19C11.2974 21.244 10.7428 21.5017 10.32 21.919C5.05198 23.392 1.65199 21.662 1.07499 20.573C0.96599 20.373 1.02698 20.324 1.05898 20.303C3.16354 18.6128 5.84512 17.8115 8.53199 18.07C9.13607 18.3413 9.76456 18.5546 10.409 18.707C10.609 18.761 11.016 18.876 11.193 18.543C11.2408 18.4513 11.2543 18.3456 11.2313 18.2448C11.2082 18.144 11.1499 18.0547 11.067 17.993C10.3747 17.5897 9.59917 17.3503 8.79998 17.293C7.69965 16.7547 6.71911 16.0001 5.91691 15.0744C5.11471 14.1486 4.50731 13.0707 4.13099 11.905C3.59364 10.5547 3.44099 9.08184 3.69 7.65C9.01999 8.513 11.468 11.525 12.552 13.663C12.7418 14.4646 12.9904 15.251 13.296 16.016C13.439 16.398 13.686 16.411 13.82 16.385C13.9286 16.3618 14.0245 16.2985 14.0885 16.2076C14.1525 16.1168 14.1798 16.0051 14.165 15.895C14.0446 14.9805 13.7493 14.0978 13.295 13.295C12.272 8.695 13.565 4.361 16.732 2.429C17.5253 3.05356 18.1124 3.90234 18.417 4.865C19.4744 7.41307 19.5541 10.2618 18.641 12.865C17.8738 13.9077 17.2731 15.0631 16.86 16.29C16.865 16.3747 16.8954 16.4559 16.9473 16.523C16.9993 16.5901 17.0702 16.6399 17.151 16.666C17.2425 16.6917 17.34 16.6867 17.4284 16.6518C17.5169 16.617 17.5915 16.5542 17.641 16.473C18.3585 15.4807 18.935 14.3937 19.354 13.243C20.3903 11.5076 21.8759 10.0842 23.654 9.123C25.3729 8.32028 27.3303 8.19076 29.14 8.76C29.2386 9.96562 28.9672 11.1726 28.362 12.22C27.1599 14.31 25.2278 15.8821 22.937 16.634C21.6524 16.7486 20.3991 17.0938 19.237 17.653C19.1661 17.7125 19.1168 17.7938 19.0967 17.8842C19.0766 17.9746 19.0869 18.0691 19.126 18.153C19.1725 18.2323 19.2422 18.2955 19.3257 18.3341C19.4091 18.3727 19.5024 18.3849 19.593 18.369C20.8161 18.163 22.017 17.8422 23.18 17.411C26.3332 16.9662 29.5361 17.7597 32.117 19.625C32.104 19.725 31.977 20.045 31.451 20.497C30.025 21.72 26.315 23.249 20.892 21.977C20.3132 21.6004 19.6515 21.3702 18.964 21.306C18.8575 21.2991 18.7518 21.3286 18.6642 21.3896C18.5766 21.4507 18.5124 21.5397 18.482 21.642C18.4564 21.7517 18.4697 21.8668 18.5194 21.9678C18.5692 22.0688 18.6524 22.1495 18.755 22.196C18.7824 22.2134 18.812 22.2272 18.843 22.237C19.443 22.437 20.034 22.603 20.603 22.737C22.4636 23.9021 23.8397 25.7012 24.477 27.802L24.587 28.128C24.887 29.007 25.333 30.334 25.071 30.641C24.1107 30.851 23.1077 30.7335 22.222 30.307C20.435 29.589 18.069 27.761 16.955 23.156C16.893 22.856 17.083 22.602 17.449 22.142C18.1352 21.4013 18.5412 20.4442 18.597 19.436C18.5792 18.8292 18.3815 18.2413 18.029 17.747C17.6764 17.2528 17.185 16.8744 16.617 16.66C16.1328 16.4318 15.5912 16.3545 15.0626 16.4383C14.5339 16.5222 14.0428 16.7632 13.653 17.13C13.2282 17.52 12.9112 18.013 12.7326 18.5613C12.5539 19.1095 12.5196 19.6946 12.633 20.26C12.7176 20.6227 12.8975 20.9562 13.1542 21.2261C13.4109 21.4959 13.735 21.6923 14.093 21.795C14.4773 21.9345 14.8886 21.9835 15.295 21.9382C15.7013 21.893 16.0918 21.7546 16.436 21.534C16.7084 21.3263 16.9286 21.0578 17.0789 20.75C17.2293 20.4422 17.3057 20.1036 17.302 19.761C17.3367 19.384 17.2622 19.0049 17.0873 18.6691C16.9125 18.3333 16.6447 18.0548 16.316 17.867C16.0854 17.7452 15.8245 17.6926 15.5648 17.7157C15.305 17.7388 15.0575 17.8364 14.852 17.997C14.754 18.0552 14.6717 18.1364 14.6122 18.2336C14.5528 18.3308 14.5179 18.441 14.5107 18.5547C14.5035 18.6684 14.5242 18.7822 14.571 18.8861C14.6177 18.99 14.6891 19.081 14.779 19.151C14.9115 19.277 14.9994 19.4428 15.0293 19.6232C15.0593 19.8036 15.0297 19.9889 14.945 20.151C14.9104 20.2523 14.9174 20.3632 14.9646 20.4593C15.0118 20.5554 15.0952 20.6289 15.1965 20.6635C15.2978 20.6981 15.4087 20.6911 15.5048 20.6439C15.6009 20.5967 15.6744 20.5133 15.709 20.412C15.8415 20.1167 15.8823 19.7884 15.8261 19.4696C15.7699 19.1509 15.6194 18.8563 15.394 18.624L15.378 18.605C15.4624 18.5485 15.5609 18.5165 15.6624 18.5126C15.7639 18.5087 15.8645 18.5331 15.953 18.583C16.1434 18.7022 16.2957 18.8735 16.3916 19.0767C16.4875 19.2798 16.523 19.5062 16.494 19.729C16.5011 19.9483 16.4565 20.1661 16.3639 20.365C16.2714 20.5639 16.1333 20.7383 15.961 20.874C15.7162 21.0209 15.4412 21.1099 15.1568 21.1343C14.8724 21.1588 14.5862 21.118 14.32 21.015C14.0964 20.9516 13.8942 20.8289 13.7347 20.6599C13.5752 20.4909 13.4644 20.2819 13.414 20.055C13.339 19.6254 13.3738 19.1838 13.515 18.7713C13.6563 18.3587 13.8995 17.9885 14.222 17.695C14.4986 17.4401 14.8462 17.2754 15.2186 17.2229C15.5911 17.1703 15.9707 17.2325 16.307 17.401C16.7305 17.5533 17.0995 17.8277 17.3672 18.1895C17.6349 18.5514 17.7893 18.9844 17.811 19.434C17.7596 20.2649 17.416 21.051 16.841 21.653C16.6071 21.8657 16.4263 22.1303 16.3132 22.4256C16.2002 22.7208 16.158 23.0385 16.19 23.353C17.619 29.259 21.017 30.924 22.914 31.391C24.137 31.691 25.323 31.617 25.672 31.219C26.272 30.537 25.835 29.25 25.372 27.89L25.262 27.564C24.7102 25.8625 23.7354 24.3289 22.429 23.107C28.129 23.932 31.767 21.765 32.678 20.379C33.145 19.666 32.888 19.246 32.758 19.099ZM26.244 32.934C26.4508 33.6369 26.4357 34.3866 26.2008 35.0806C25.9658 35.7747 25.5223 36.3793 24.931 36.812C24.6937 36.1111 24.6938 35.3516 24.9311 34.6507C25.1684 33.9499 25.6297 33.3466 26.244 32.934V32.934Z" fill="#40D4D9"/>
<path d="M17.11 38.122C17.0587 38.1402 17.0116 38.1687 16.9717 38.2057C16.9318 38.2428 16.8999 38.2876 16.8779 38.3374C16.8559 38.3872 16.8443 38.441 16.8438 38.4954C16.8433 38.5499 16.8539 38.6038 16.875 38.654C17.3007 39.8442 18.0965 40.8666 19.1457 41.5715C20.1949 42.2764 21.4423 42.6267 22.705 42.571C23.5267 42.5734 24.3442 42.4541 25.131 42.217C25.1865 42.1981 25.2372 42.1674 25.2796 42.1269C25.322 42.0865 25.3551 42.0374 25.3767 41.9829C25.3983 41.9284 25.4078 41.8699 25.4046 41.8114C25.4014 41.7529 25.3855 41.6958 25.358 41.644C24.6494 40.1519 23.4198 38.9703 21.9007 38.3217C20.3816 37.673 18.6778 37.602 17.11 38.122V38.122ZM17.81 38.763C19.0643 38.4395 20.3903 38.5402 21.5814 39.0494C22.7724 39.5586 23.7614 40.4477 24.394 41.578C23.085 41.865 19.517 42.296 17.806 38.763H17.81Z" fill="#40D4D9"/>
</svg>
