<svg width="122" height="62" viewBox="0 0 122 62" fill="none" xmlns="http://www.w3.org/2000/svg">
<path d="M120.566 15.263C120.566 18.2261 119.687 21.1227 118.041 23.5865C116.395 26.0502 114.055 27.9705 111.318 29.1045C108.58 30.2385 105.568 30.5352 102.662 29.9572C99.7553 29.3792 97.0858 27.9524 94.9905 25.8572C92.8952 23.7621 91.4682 21.0926 90.89 18.1865C90.3118 15.2803 90.6084 12.268 91.7421 9.53033C92.8759 6.79271 94.7961 4.45278 97.2597 2.80642C99.7234 1.16005 102.62 0.281204 105.583 0.281006C109.557 0.281006 113.367 1.85943 116.177 4.66907C118.987 7.47871 120.566 11.2894 120.566 15.263Z" fill="#FFD283"/>
<path d="M121.758 19.099C121.739 19.0785 121.719 19.0594 121.697 19.042C119.505 17.4259 116.858 16.5448 114.135 16.525C115.438 15.8823 116.562 14.9271 117.407 13.7446C118.251 12.5622 118.79 11.1892 118.975 9.748C119.038 9.075 119.02 8.235 118.612 8.085C117.603 7.71116 116.529 7.54504 115.454 7.59659C114.379 7.64814 113.326 7.91631 112.357 8.385C111.005 9.04386 109.824 10.0062 108.906 11.197C109.193 9.64599 109.155 8.05218 108.793 6.51676C108.432 4.98135 107.755 3.53788 106.806 2.278C106.12 1.523 105.66 1.547 105.389 1.704C102.321 3.536 100.821 7.353 101.223 11.599C99.1009 8.9333 96.008 7.21821 92.623 6.83C92.329 6.805 91.961 6.976 91.823 7.887C91.679 9.67549 91.9914 11.4712 92.7309 13.1061C93.4704 14.7409 94.6128 16.1612 96.051 17.234C93.6989 17.359 91.4427 18.2065 89.59 19.661C89.3933 19.808 89.261 20.0252 89.2205 20.2674C89.1801 20.5096 89.2347 20.7581 89.373 20.961C90.085 22.303 93.418 24.006 98.407 22.975C97.8009 23.8965 97.3468 24.9094 97.062 25.975C95.754 30.524 96.823 31.693 97.335 32.254C97.3706 32.2896 97.404 32.3273 97.435 32.367C97.643 32.784 98.283 32.644 98.494 32.598C100.016 32.266 102.612 30.687 103.838 26.989C104.259 29.1682 105.414 31.1375 107.11 32.569L107.553 32.922C111.682 36.208 114.667 38.582 114.859 45.094C114.863 45.1982 114.906 45.297 114.981 45.37C115.055 45.443 115.155 45.4845 115.259 45.486H115.271C115.324 45.4851 115.377 45.4735 115.426 45.452C115.475 45.4304 115.519 45.3993 115.555 45.3604C115.592 45.3215 115.621 45.2757 115.639 45.2257C115.658 45.1756 115.666 45.1224 115.664 45.069C115.692 42.5283 115.012 40.03 113.7 37.854H113.708C113.785 37.8544 113.86 37.8321 113.925 37.79C114.872 37.2446 115.587 36.3727 115.936 35.3377C116.286 34.3028 116.247 33.1758 115.825 32.168C115.803 32.1186 115.771 32.0743 115.731 32.0377C115.691 32.0011 115.644 31.973 115.593 31.955C115.542 31.9368 115.488 31.9292 115.433 31.9326C115.379 31.9361 115.326 31.9505 115.278 31.975C114.362 32.4204 113.641 33.1867 113.252 34.1285C112.863 35.0702 112.834 36.1219 113.169 37.084C111.674 35.2725 109.955 33.6594 108.051 32.284L107.61 31.932C105.097 29.932 104.458 26.727 104.352 24.751C104.434 24.1742 104.484 23.5933 104.503 23.011C104.496 22.876 104.478 22.522 104.14 22.457C104.046 22.4443 103.949 22.4618 103.866 22.5071C103.782 22.5523 103.714 22.623 103.673 22.709C103.511 23.3918 103.464 24.0968 103.534 24.795C103.301 27.0889 102.194 29.2049 100.441 30.703C99.7632 31.2965 98.9348 31.6917 98.047 31.845C98.01 31.798 97.969 31.753 97.925 31.704C97.543 31.286 96.648 30.304 97.825 26.192C98.1367 24.8537 98.8015 23.6233 99.75 22.629C100.164 22.509 100.583 22.372 101.015 22.214C101.445 21.999 101.453 21.721 101.423 21.574C101.393 21.4579 101.323 21.356 101.225 21.2859C101.128 21.2158 101.009 21.1819 100.889 21.19C100.297 21.244 99.7428 21.5017 99.32 21.919C94.052 23.392 90.652 21.662 90.075 20.573C89.966 20.373 90.027 20.324 90.059 20.303C92.1635 18.6128 94.8451 17.8115 97.532 18.07C98.1361 18.3413 98.7646 18.5546 99.409 18.707C99.609 18.761 100.016 18.876 100.193 18.543C100.241 18.4513 100.254 18.3456 100.231 18.2448C100.208 18.144 100.15 18.0547 100.067 17.993C99.3747 17.5897 98.5992 17.3503 97.8 17.293C96.6997 16.7547 95.7191 16.0001 94.9169 15.0744C94.1147 14.1486 93.5073 13.0707 93.131 11.905C92.5936 10.5547 92.441 9.08184 92.69 7.65C98.02 8.513 100.468 11.525 101.552 13.663C101.742 14.4646 101.99 15.251 102.296 16.016C102.439 16.398 102.686 16.411 102.82 16.385C102.929 16.3618 103.025 16.2985 103.089 16.2076C103.152 16.1168 103.18 16.0051 103.165 15.895C103.045 14.9805 102.749 14.0978 102.295 13.295C101.272 8.695 102.565 4.361 105.732 2.429C106.525 3.05356 107.112 3.90234 107.417 4.865C108.474 7.41307 108.554 10.2618 107.641 12.865C106.874 13.9077 106.273 15.0631 105.86 16.29C105.865 16.3747 105.895 16.4559 105.947 16.523C105.999 16.5901 106.07 16.6399 106.151 16.666C106.243 16.6917 106.34 16.6867 106.428 16.6518C106.517 16.617 106.592 16.5542 106.641 16.473C107.358 15.4807 107.935 14.3937 108.354 13.243C109.39 11.5076 110.876 10.0842 112.654 9.123C114.373 8.32028 116.33 8.19076 118.14 8.76C118.239 9.96562 117.967 11.1726 117.362 12.22C116.16 14.31 114.228 15.8821 111.937 16.634C110.652 16.7486 109.399 17.0938 108.237 17.653C108.166 17.7125 108.117 17.7938 108.097 17.8842C108.077 17.9746 108.087 18.0691 108.126 18.153C108.173 18.2323 108.242 18.2955 108.326 18.3341C108.409 18.3727 108.502 18.3849 108.593 18.369C109.816 18.163 111.017 17.8422 112.18 17.411C115.333 16.9662 118.536 17.7597 121.117 19.625C121.104 19.725 120.977 20.045 120.451 20.497C119.025 21.72 115.315 23.249 109.892 21.977C109.313 21.6004 108.652 21.3702 107.964 21.306C107.857 21.2991 107.752 21.3286 107.664 21.3896C107.577 21.4507 107.512 21.5397 107.482 21.642C107.456 21.7517 107.47 21.8668 107.519 21.9678C107.569 22.0688 107.652 22.1495 107.755 22.196C107.782 22.2134 107.812 22.2272 107.843 22.237C108.443 22.437 109.034 22.603 109.603 22.737C111.464 23.9021 112.84 25.7012 113.477 27.802L113.587 28.128C113.887 29.007 114.333 30.334 114.071 30.641C113.111 30.851 112.108 30.7335 111.222 30.307C109.435 29.589 107.069 27.761 105.955 23.156C105.893 22.856 106.083 22.602 106.449 22.142C107.135 21.4013 107.541 20.4442 107.597 19.436C107.579 18.8292 107.382 18.2413 107.029 17.747C106.676 17.2528 106.185 16.8744 105.617 16.66C105.133 16.4318 104.591 16.3545 104.063 16.4383C103.534 16.5222 103.043 16.7632 102.653 17.13C102.228 17.52 101.911 18.013 101.733 18.5613C101.554 19.1095 101.52 19.6946 101.633 20.26C101.718 20.6227 101.898 20.9562 102.154 21.2261C102.411 21.4959 102.735 21.6923 103.093 21.795C103.477 21.9345 103.889 21.9835 104.295 21.9382C104.701 21.893 105.092 21.7546 105.436 21.534C105.708 21.3263 105.929 21.0578 106.079 20.75C106.229 20.4422 106.306 20.1036 106.302 19.761C106.337 19.384 106.262 19.0049 106.087 18.6691C105.913 18.3333 105.645 18.0548 105.316 17.867C105.085 17.7452 104.825 17.6926 104.565 17.7157C104.305 17.7388 104.057 17.8364 103.852 17.997C103.754 18.0552 103.672 18.1364 103.612 18.2336C103.553 18.3308 103.518 18.441 103.511 18.5547C103.504 18.6684 103.524 18.7822 103.571 18.8861C103.618 18.99 103.689 19.081 103.779 19.151C103.912 19.277 103.999 19.4428 104.029 19.6232C104.059 19.8036 104.03 19.9889 103.945 20.151C103.91 20.2523 103.917 20.3632 103.965 20.4593C104.012 20.5555 104.095 20.6289 104.196 20.6635C104.298 20.6981 104.409 20.6911 104.505 20.6439C104.601 20.5967 104.674 20.5133 104.709 20.412C104.841 20.1167 104.882 19.7884 104.826 19.4696C104.77 19.1509 104.619 18.8563 104.394 18.624L104.378 18.605C104.462 18.5485 104.561 18.5165 104.662 18.5126C104.764 18.5087 104.864 18.5331 104.953 18.583C105.143 18.7022 105.296 18.8735 105.392 19.0767C105.487 19.2798 105.523 19.5062 105.494 19.729C105.501 19.9483 105.457 20.1661 105.364 20.365C105.271 20.5639 105.133 20.7383 104.961 20.874C104.716 21.0209 104.441 21.1099 104.157 21.1343C103.872 21.1588 103.586 21.118 103.32 21.015C103.096 20.9516 102.894 20.8289 102.735 20.6599C102.575 20.4909 102.464 20.2819 102.414 20.055C102.339 19.6254 102.374 19.1838 102.515 18.7713C102.656 18.3587 102.899 17.9885 103.222 17.695C103.499 17.4401 103.846 17.2754 104.219 17.2229C104.591 17.1703 104.971 17.2325 105.307 17.401C105.731 17.5533 106.099 17.8277 106.367 18.1895C106.635 18.5514 106.789 18.9844 106.811 19.434C106.76 20.2649 106.416 21.051 105.841 21.653C105.607 21.8657 105.426 22.1303 105.313 22.4256C105.2 22.7208 105.158 23.0385 105.19 23.353C106.619 29.259 110.017 30.924 111.914 31.391C113.137 31.691 114.323 31.617 114.672 31.219C115.272 30.537 114.835 29.25 114.372 27.89L114.262 27.564C113.71 25.8625 112.735 24.3289 111.429 23.107C117.129 23.932 120.767 21.765 121.678 20.379C122.145 19.666 121.888 19.246 121.758 19.099ZM115.244 32.934C115.451 33.6369 115.436 34.3866 115.201 35.0806C114.966 35.7747 114.522 36.3793 113.931 36.812C113.694 36.1111 113.694 35.3516 113.931 34.6507C114.168 33.9499 114.63 33.3466 115.244 32.934Z" fill="#40D4D9"/>
<path d="M106.11 38.122C106.059 38.1402 106.012 38.1687 105.972 38.2057C105.932 38.2428 105.9 38.2876 105.878 38.3374C105.856 38.3872 105.844 38.441 105.844 38.4954C105.843 38.5499 105.854 38.6038 105.875 38.654C106.301 39.8442 107.097 40.8666 108.146 41.5715C109.195 42.2764 110.442 42.6267 111.705 42.571C112.527 42.5734 113.344 42.4541 114.131 42.217C114.186 42.1981 114.237 42.1674 114.28 42.1269C114.322 42.0865 114.355 42.0374 114.377 41.9829C114.398 41.9284 114.408 41.8699 114.405 41.8114C114.401 41.7529 114.385 41.6958 114.358 41.644C113.649 40.1519 112.42 38.9703 110.901 38.3217C109.382 37.673 107.678 37.602 106.11 38.122ZM106.81 38.763C108.064 38.4395 109.39 38.5402 110.581 39.0494C111.772 39.5586 112.761 40.4477 113.394 41.578C112.085 41.865 108.517 42.296 106.806 38.763H106.81Z" fill="#40D4D9"/>
<path d="M16.361 38.859C16.1057 36.859 15.3723 35.5696 14.161 34.991C13.7552 34.7672 13.3003 34.6474 12.837 34.642C12.351 34.6469 11.8731 34.7665 11.442 34.991C10.6036 35.4886 9.84591 36.1111 9.19499 36.837C8.36076 37.6563 7.60821 38.5549 6.94799 39.52C5.64112 41.6482 4.49912 43.8734 3.53199 46.176C3.32399 46.687 3.14899 46.942 3.01099 46.942C2.96432 46.942 2.94099 46.8723 2.94099 46.733C2.937 46.6272 2.94846 46.5214 2.97499 46.419C3.37986 44.4118 3.91431 42.433 4.57499 40.495C4.98029 39.4317 5.29508 38.3362 5.51599 37.22C5.51598 37.0797 5.4668 36.9438 5.37699 36.836C5.1526 36.5835 4.87256 36.3866 4.55899 36.261C4.23774 36.1029 3.88678 36.0143 3.52899 36.001C3.29699 36.001 3.14599 36.058 3.07699 36.175C2.67153 36.9211 2.35023 37.7099 2.11899 38.527C1.71673 39.6875 1.37362 40.8677 1.09099 42.063C0.382884 45.0661 0.0321211 48.1425 0.0459889 51.228C0.0459889 51.391 0.0509866 51.652 0.0639866 52.012C0.0769866 52.372 0.0809849 52.656 0.0809849 52.866C0.103652 54.6313 0.207988 56.4723 0.393988 58.389C0.426231 59.4564 0.590137 60.5157 0.881987 61.543C1.03238 61.6564 1.21563 61.7177 1.40399 61.7177C1.59235 61.7177 1.77559 61.6564 1.92599 61.543C2.08847 60.354 2.13603 59.1521 2.06799 57.954C2.02025 56.3575 2.11361 54.76 2.34699 53.18C2.85699 50.6466 3.24032 49.334 3.49699 49.242C3.61199 49.196 3.82198 49.289 4.12298 49.521C5.14144 50.2483 6.35668 50.6493 7.60799 50.671H8.05999C9.32851 50.6803 10.5737 50.3298 11.651 49.66C13.1619 48.7258 14.3731 47.3778 15.141 45.776C16.0136 44.0905 16.468 42.2199 16.466 40.322C16.4665 39.8324 16.4314 39.3435 16.361 38.859ZM14.584 41.698C14.3934 42.4835 14.1254 43.2483 13.784 43.981C12.3173 47.1403 10.342 48.9986 7.85799 49.556C7.50552 49.6488 7.14249 49.6956 6.77799 49.695C6.29837 49.6756 5.82792 49.5573 5.39616 49.3475C4.96441 49.1378 4.58066 48.841 4.26899 48.476L3.81698 47.988L4.65199 46.001C5.85719 42.892 7.64371 40.0412 9.91599 37.601C11.3553 36.161 12.4937 35.4406 13.331 35.44C13.4684 35.4353 13.6052 35.461 13.7316 35.5152C13.858 35.5695 13.9708 35.651 14.062 35.754C14.5487 36.312 14.7927 37.4386 14.794 39.134C14.8123 39.9936 14.742 40.8528 14.584 41.698Z" fill="#40D4D9"/>
<path d="M17.318 41.384C17.4985 41.5063 17.7109 41.573 17.929 41.576C17.9856 41.5799 18.0424 41.5725 18.0961 41.5543C18.1498 41.5361 18.1994 41.5075 18.242 41.47C18.6046 41.1183 18.8838 40.6898 19.059 40.216C19.3024 39.7726 19.462 39.2882 19.53 38.787C19.5064 38.6008 19.4387 38.4229 19.3324 38.2683C19.2261 38.1136 19.0844 37.9867 18.919 37.898C18.6061 37.6427 18.2218 37.4908 17.819 37.463C17.7275 37.4504 17.6344 37.4673 17.5531 37.5111C17.4718 37.555 17.4067 37.6236 17.367 37.707C17.343 37.799 17.2846 38.3323 17.192 39.307C17.1686 39.539 17.1456 39.783 17.123 40.039C17.099 40.294 17.077 40.497 17.053 40.649C17.0332 40.7583 17.0212 40.8689 17.017 40.98C17.021 41.123 17.121 41.256 17.318 41.384Z" fill="#40D4D9"/>
<path d="M115.278 49.445C115.278 49.423 115.285 49.399 115.288 49.378C115.557 47.7608 115.678 46.1222 115.647 44.483C115.484 42.828 114.806 44.036 114.806 44.036C114.915 45.5775 114.897 47.1254 114.752 48.664C114.727 48.789 114.703 48.934 114.685 49.104C114.659 49.309 114.624 49.53 114.585 49.76C114.578 49.796 114.573 49.835 114.566 49.871C114.437 50.6117 114.244 51.483 113.989 52.485C113.749 53.5166 113.435 54.5295 113.049 55.516C112.776 56.1803 112.45 56.8214 112.073 57.433C111.703 58.033 111.446 58.339 111.306 58.339C111.214 58.339 111.075 58.048 110.889 57.468C110.78 56.942 110.733 56.4049 110.75 55.868C110.748 54.1623 110.97 52.4638 111.411 50.816C111.604 50.2156 111.733 49.5965 111.795 48.969C111.79 48.7439 111.717 48.5255 111.587 48.342C111.482 48.12 111.303 47.9412 111.081 47.836C110.713 47.723 110.332 47.6584 109.948 47.644C109.465 47.6345 108.985 47.5643 108.519 47.435C108.564 47.0449 108.645 46.6598 108.762 46.285C108.931 45.6594 109.025 45.0158 109.041 44.368C109.078 43.9201 108.981 43.4714 108.762 43.079C108.693 42.9619 108.597 42.8629 108.482 42.79C108.367 42.7172 108.236 42.6726 108.101 42.66C107.7 42.7418 107.342 42.9646 107.091 43.288C106.412 43.9509 106.012 44.8487 105.974 45.797C106.018 46.6911 106.376 47.541 106.985 48.197C107.072 48.2811 107.168 48.3556 107.271 48.419C106.965 48.8444 106.694 49.2946 106.463 49.765C105.139 52.3437 103.966 54.0047 102.944 54.748C102.551 55.0962 102.067 55.3258 101.549 55.41C101.42 55.408 101.294 55.3715 101.184 55.3041C101.074 55.2367 100.984 55.141 100.923 55.027C100.565 54.2413 100.409 53.3784 100.47 52.517C100.474 52.1677 100.497 51.8188 100.539 51.472C100.558 51.1924 100.636 50.92 100.766 50.672C100.921 50.5567 101.115 50.5068 101.306 50.533C101.728 50.5333 102.144 50.4281 102.515 50.2271C102.886 50.0261 103.201 49.7356 103.432 49.382C104.078 48.6282 104.469 47.6888 104.547 46.699C104.562 46.2788 104.436 45.8656 104.19 45.5248C103.943 45.184 103.591 44.935 103.187 44.817C102.978 44.7237 102.755 44.6649 102.527 44.643C102.177 44.643 101.666 44.9913 100.993 45.688C100.345 46.3659 99.8389 47.1661 99.504 48.042C99.3854 48.0296 99.2663 48.0233 99.147 48.023C99.0068 48.0189 98.8667 48.0303 98.729 48.057C98.5917 48.084 98.4519 48.0954 98.312 48.091C97.9179 48.1048 97.5254 48.0339 97.161 47.883L96.461 47.569L96.533 45.583C96.556 45.328 96.567 44.966 96.567 44.503C96.567 43.2943 96.3003 42.5163 95.767 42.169C95.443 41.9201 95.0577 41.7636 94.652 41.716C94.5263 41.7209 94.4028 41.7511 94.289 41.8049C94.1753 41.8587 94.0736 41.9349 93.99 42.029C93.5764 42.5515 93.3772 43.2119 93.433 43.876C93.4351 44.5375 93.5585 45.193 93.797 45.81C93.9735 46.354 94.3076 46.8332 94.757 47.187C94.964 47.35 95.071 47.5 95.071 47.639C95.071 47.778 94.908 48.499 94.582 49.8C94.1533 51.5081 93.5761 53.1754 92.857 54.783C92.4934 55.8542 91.8778 56.8223 91.062 57.606C90.9874 57.6474 90.9042 57.671 90.819 57.675C90.6663 57.6525 90.5203 57.5974 90.3909 57.5133C90.2614 57.4293 90.1516 57.3183 90.069 57.188C89.774 56.8108 89.5448 56.3865 89.391 55.933C89.063 54.9442 88.8978 53.9087 88.902 52.867C88.902 52.239 88.9833 51.089 89.146 49.417C89.3087 47.745 89.3903 46.6183 89.391 46.037V45.827L89.355 45.688C89.309 45.525 89.135 45.358 88.831 45.182C88.6022 45.0317 88.339 44.9419 88.066 44.921C87.949 44.921 87.879 44.932 87.856 44.956C87.6947 45.2069 87.5991 45.4944 87.578 45.792C87.2576 47.2279 86.7661 48.6202 86.114 49.939C85.3 51.7277 84.7303 52.6803 84.405 52.797H84.371C84.1157 52.797 83.988 52.297 83.988 51.297C83.9941 51.0055 84.0175 50.7147 84.058 50.426C84.1847 49.5941 84.3944 48.777 84.684 47.987C84.9107 47.4307 85.0523 46.8435 85.104 46.245C85.104 45.92 84.852 45.645 84.355 45.426C83.9011 45.2157 83.4082 45.103 82.908 45.095C82.7702 45.0791 82.6307 45.0925 82.4985 45.1344C82.3663 45.1763 82.2445 45.2457 82.141 45.338C81.9163 45.7829 81.7859 46.2694 81.758 46.767C81.697 47.18 81.658 47.574 81.625 47.955C81.1657 48.0218 80.7103 48.1136 80.261 48.23C79.829 48.3557 79.3854 48.4378 78.937 48.475H78.867L78.797 48.44C78.658 48.347 78.589 48.126 78.589 47.778C78.5843 46.9469 78.3361 46.1354 77.875 45.444C77.5105 44.7879 76.9041 44.3002 76.185 44.085C75.9222 44.0102 75.655 43.9517 75.385 43.91C75.1811 43.9239 74.9808 43.9708 74.792 44.049C74.4553 44.1986 74.1837 44.4645 74.027 44.798C73.8151 45.1881 73.7067 45.626 73.712 46.07C73.712 47.348 74.5367 48.2307 76.186 48.718L77.406 49.066L77.306 49.866C77.1468 50.9909 76.7989 52.0808 76.277 53.09C75.9031 53.9265 75.3059 54.6437 74.551 55.163L73.925 55.547L73.682 54.954C73.5727 54.6408 73.5251 54.3093 73.542 53.978C73.5653 52.7996 73.8262 51.6381 74.309 50.563C74.5495 50.0675 74.7137 49.5385 74.796 48.994C74.7925 48.9087 74.7689 48.8254 74.727 48.751C74.569 48.4826 74.321 48.2789 74.027 48.176C73.6747 48.024 73.2947 47.9467 72.911 47.949C72.87 47.9515 72.8292 47.9572 72.789 47.966C72.7493 47.9753 72.7088 47.981 72.668 47.983C72.4805 47.9946 72.299 48.0536 72.1404 48.1543C71.9818 48.255 71.8513 48.3942 71.761 48.559C71.4876 49.221 71.3121 49.9194 71.24 50.632C71.233 50.668 71.24 50.7 71.233 50.732C70.24 53.86 69.153 56.032 67.966 57.214C67.3613 57.772 66.9543 58.0507 66.745 58.05C66.561 58.05 66.34 57.887 66.084 57.562C65.4567 56.7493 65.143 55.193 65.143 52.893V52.37C65.1347 51.1859 65.222 50.003 65.404 48.833C65.5701 48.2564 65.9341 47.7568 66.432 47.422C67.7705 46.2177 68.8751 44.7765 69.69 43.171C70.7899 41.3318 71.663 39.3662 72.29 37.317C72.588 36.3096 72.7518 35.2672 72.777 34.217C72.8558 33.4428 72.6314 32.6682 72.151 32.056C71.9938 31.8732 71.8018 31.7237 71.5862 31.616C71.3705 31.5083 71.1355 31.4448 70.895 31.429C70.5713 31.446 70.2591 31.5549 69.995 31.743C69.019 32.3237 67.892 33.8687 66.614 36.378C66.593 36.419 66.575 36.46 66.555 36.502C66.086 36.467 65.511 36.448 64.804 36.448H64.422C63.211 36.4149 61.9992 36.4734 60.797 36.623C60.5215 36.6769 60.2424 36.7103 59.962 36.723C59.6829 36.6703 59.4133 36.5763 59.162 36.444C58.7511 36.2222 58.3018 36.0804 57.838 36.026C57.4887 36.026 57.1867 36.2697 56.932 36.757C56.8806 36.9018 56.7976 37.0333 56.6889 37.1419C56.5803 37.2506 56.4488 37.3336 56.304 37.385C54.6791 37.695 53.0825 38.1378 51.53 38.709C51.0092 38.9321 50.5317 39.2448 50.119 39.633C49.8301 39.8728 49.6478 40.2172 49.612 40.591C49.612 40.9623 49.8563 41.2643 50.345 41.497L50.797 41.707L51.216 41.219C51.6021 40.8098 52.0631 40.4785 52.574 40.243C53.1616 39.9409 53.7742 39.6903 54.405 39.494C54.8828 39.3088 55.379 39.1748 55.885 39.094C55.91 39.094 55.921 39.117 55.921 39.164C55.8707 39.6477 55.7773 40.1259 55.642 40.593C55.2318 42.3732 54.9293 44.1764 54.736 45.993C54.6975 46.5445 54.6159 47.0922 54.492 47.631C53.2701 47.9575 52.0226 48.1793 50.763 48.294C50.68 48.3081 50.6007 48.3391 50.53 48.385C50.4875 48.3181 50.4297 48.2623 50.3614 48.2221C50.293 48.1819 50.2161 48.1586 50.137 48.154C50.0778 48.149 50.0186 48.1633 49.9683 48.1949C49.918 48.2265 49.8793 48.2735 49.858 48.329C49.7913 48.6077 49.5247 49.502 49.058 51.012C47.572 55.984 45.8523 58.47 43.899 58.47C43.2017 58.47 42.4683 57.8193 41.699 56.518C41.4897 56.1467 41.1183 55.3627 40.585 54.166C40.2775 53.5386 40.0103 52.8923 39.785 52.231C40.1328 52.0219 40.4939 51.8358 40.866 51.674C42.3053 51.046 43.1297 50.349 43.339 49.583C43.3659 49.4925 43.378 49.3983 43.375 49.304C43.3632 49.0377 43.2969 48.7766 43.1801 48.537C43.0633 48.2974 42.8985 48.0843 42.696 47.911C42.5056 47.7075 42.2764 47.5442 42.0218 47.4306C41.7673 47.3171 41.4926 47.2557 41.214 47.25C40.1 47.25 39.0083 48.2023 37.939 50.107L37.313 51.222V49.48C37.2651 48.8508 37.3357 48.2182 37.521 47.615C37.8474 47.1779 38.2634 46.8155 38.741 46.552C39.9551 45.6303 41.0864 44.6044 42.122 43.486C44.0817 41.5569 45.7699 39.3702 47.14 36.986C48.2004 35.2798 48.8191 33.3362 48.94 31.331C48.9696 30.7871 48.8858 30.243 48.6938 29.7333C48.5019 29.2235 48.206 28.7593 47.825 28.37C47.3756 28.0021 46.805 27.8152 46.225 27.846C45.581 27.844 44.9462 27.9995 44.376 28.299C43.1102 29.0903 42.0049 30.1132 41.118 31.314C39.9044 32.7909 38.8586 34.3981 38 36.106C36.3243 39.4104 35.4526 43.0639 35.456 46.769C35.456 47.469 35.489 48.151 35.543 48.817C35.387 49.18 35.213 49.638 35.005 50.254C34.3735 52.1871 33.5682 54.0591 32.599 55.847C31.7163 57.4383 31.0433 58.2337 30.58 58.233C30.139 58.233 29.916 57.851 29.916 57.084C29.916 55.6667 30.6827 52.902 32.216 48.79C32.8978 47.178 33.3441 45.4762 33.541 43.737C33.5432 43.4779 33.5075 43.2198 33.435 42.971C33.1103 41.7403 32.5873 41.1247 31.866 41.124C31.0527 41.124 30.1353 41.8153 29.114 43.198C28.1955 44.3969 27.4452 45.7158 26.884 47.118C26.8373 47.258 26.6163 47.775 26.221 48.669C25.8257 49.563 25.5237 50.2773 25.315 50.812C24.978 51.7978 24.5585 52.7535 24.061 53.669C23.967 53.808 23.898 53.879 23.852 53.879C23.806 53.879 23.782 53.564 23.782 52.938C23.8228 50.981 24.1634 49.0418 24.792 47.188C25.0903 46.3907 25.2895 45.5598 25.385 44.714C25.38 44.4424 25.3034 44.177 25.1629 43.9445C25.0224 43.712 24.8231 43.5207 24.585 43.39C24.3987 43.2514 24.1838 43.1561 23.956 43.111C23.749 43.111 23.481 43.471 23.156 44.191C22.5371 45.6538 22.1699 47.2108 22.07 48.796C21.6314 49.447 21.2262 50.1198 20.856 50.812C19.486 53.3453 18.5223 54.612 17.965 54.612C17.8593 54.6045 17.7568 54.5723 17.6657 54.5179C17.5747 54.4635 17.4977 54.3885 17.441 54.299C17.1627 53.8775 17.0396 53.3723 17.093 52.87C17.1823 51.433 17.4168 50.0087 17.793 48.619C18.2597 46.6437 18.493 45.575 18.493 45.413C18.5088 45.062 18.4796 44.7105 18.406 44.367C18.318 44.1431 18.1669 43.9496 17.971 43.81C17.659 43.5442 17.2638 43.3959 16.854 43.391C16.601 43.391 16.437 43.473 16.367 43.635C16.1773 44.4158 16.032 45.2067 15.932 46.004C15.732 47.306 15.5987 48.3747 15.532 49.21C15.509 49.443 15.498 49.779 15.498 50.221C15.3978 51.5747 15.6497 52.9314 16.229 54.159C16.3776 54.4354 16.599 54.666 16.8692 54.8257C17.1394 54.9854 17.4482 55.0681 17.762 55.065C18.2189 55.0417 18.6641 54.9131 19.0631 54.6894C19.4621 54.4656 19.8039 54.1527 20.062 53.775C20.7658 52.8355 21.3783 51.831 21.891 50.775C21.941 50.675 21.976 50.604 22.021 50.514C22.049 52.397 22.436 53.678 23.197 54.329C23.4217 54.582 23.7318 54.7433 24.068 54.782C24.324 54.782 24.585 54.5323 24.851 54.033C25.2996 53.1 25.69 52.1402 26.02 51.159C26.7246 49.2297 27.5571 47.3495 28.512 45.531C29.4987 43.637 30.3633 42.6907 31.106 42.692C31.269 42.692 31.35 42.715 31.35 42.762C31.1973 43.5916 30.9759 44.4071 30.688 45.2C29.5191 48.3903 28.8378 51.7386 28.667 55.132C28.667 57.618 29.4107 58.861 30.898 58.861C31.246 58.861 31.665 58.576 32.152 58.007C32.6594 57.4105 33.1031 56.7626 33.476 56.074C33.8027 55.4453 34.4067 54.0687 35.288 51.944C35.475 51.494 35.639 51.095 35.788 50.731C35.81 50.871 35.819 51.022 35.846 51.16C36.069 52.8164 36.4422 54.4492 36.961 56.038C37.263 56.688 37.5533 57.0133 37.832 57.014C38.042 57.014 38.147 56.77 38.147 56.282C38.1515 55.6928 38.1979 55.1046 38.286 54.522C38.3787 53.8827 38.4597 53.563 38.529 53.563C38.8855 54.0219 39.1791 54.5264 39.402 55.063C40.0032 56.3266 40.8571 57.4534 41.911 58.374C42.6714 59.0855 43.659 59.5053 44.699 59.559C45.2704 59.5685 45.8302 59.3977 46.299 59.071C46.8754 58.6255 47.3709 58.0843 47.764 57.471C48.2641 56.7702 48.674 56.0092 48.984 55.206C49.4116 54.0313 49.7725 52.8334 50.065 51.618C50.365 50.438 50.559 49.605 50.641 49.098C50.8229 49.24 51.0279 49.3496 51.247 49.422C51.4049 49.471 51.5697 49.4946 51.735 49.492C52.1323 49.4953 52.5289 49.4618 52.92 49.392C53.107 49.369 53.314 49.34 53.548 49.305C53.782 49.27 53.954 49.241 54.069 49.217L54.28 49.183V50.019C54.28 51.2277 54.268 52.25 54.244 53.086C54.2207 53.666 54.2087 54.4327 54.208 55.386C54.163 56.7345 54.2636 58.084 54.508 59.411C54.5626 59.7313 54.682 60.0371 54.8589 60.3097C55.0359 60.5823 55.2666 60.8158 55.537 60.996C55.7884 61.1281 56.058 61.2221 56.337 61.275C56.476 61.275 56.546 61.217 56.546 61.1C56.5336 60.8918 56.4744 60.6892 56.373 60.507C56.1301 59.8243 56 59.1065 55.988 58.382V57.65C55.988 56.2327 56.088 54.466 56.288 52.35C56.3052 51.1917 56.4877 50.0417 56.83 48.935C57.5412 48.6781 58.2793 48.5026 59.03 48.412C60.3293 48.18 61.1657 48.0113 61.539 47.906C61.9123 47.8007 62.098 47.6673 62.096 47.506C62.096 47.367 61.98 47.206 61.75 47.018C61.607 46.9178 61.4343 46.8689 61.26 46.879C61.073 46.879 60.506 46.949 59.553 47.087C58.8509 47.2303 58.1415 47.3354 57.428 47.402C57.195 47.402 57.079 47.302 57.079 47.087C57.2942 45.6111 57.668 44.1627 58.194 42.767C58.6125 41.2764 59.1724 39.8291 59.866 38.445C60.1007 38.0963 61.7737 37.7713 64.885 37.47C65.41 37.409 65.821 37.38 66.155 37.37C64.4559 40.8531 63.478 44.6436 63.28 48.514C63.28 48.653 63.28 48.857 63.264 49.124C63.248 49.391 63.247 49.583 63.247 49.699C63.1732 51.864 63.5158 54.0231 64.256 56.059C64.93 57.6963 65.8013 58.515 66.87 58.515C68.314 58.515 69.77 56.687 71.227 53.066C71.3068 53.8134 71.5692 54.5298 71.991 55.152C72.2398 55.5215 72.5778 55.8223 72.9737 56.0265C73.3696 56.2307 73.8107 56.3316 74.256 56.32C74.733 56.2978 75.198 56.1631 75.613 55.9269C76.028 55.6908 76.3813 55.3598 76.644 54.961C77.4486 53.8375 78.0012 52.5536 78.264 51.197L78.716 49.21L80.007 49.071C80.648 48.996 81.176 48.914 81.607 48.825C81.607 48.871 81.607 48.925 81.607 48.967C81.6003 49.2112 81.6124 49.4556 81.643 49.698C81.7441 50.4074 81.9249 51.1031 82.182 51.772C82.3404 52.2926 82.6076 52.7736 82.966 53.183C83.3132 53.4536 83.7465 53.5896 84.186 53.566C84.4072 53.5819 84.6293 53.553 84.839 53.4812C85.0488 53.4094 85.242 53.2961 85.407 53.148C85.7959 52.6925 86.1236 52.1883 86.382 51.648L86.974 50.568L87.218 52.101C87.4003 53.3996 87.7461 54.67 88.247 55.882C88.5 56.7172 89.0208 57.446 89.729 57.956C89.998 58.0914 90.2985 58.1518 90.599 58.131C90.6686 58.129 90.7381 58.123 90.807 58.113C90.901 58.102 90.958 58.096 90.981 58.096C92.0743 57.9567 93.0853 56.9347 94.014 55.03C94.4774 54.012 94.8866 52.9702 95.24 51.909C95.6064 50.9398 95.8976 49.9439 96.111 48.93C96.2037 48.4887 96.3083 48.268 96.425 48.268L96.773 48.407C97.4918 48.5858 98.2334 48.6562 98.973 48.616C99.108 48.616 99.222 48.616 99.332 48.609C99.0982 49.3461 98.9535 50.1085 98.901 50.88C98.901 50.95 98.894 51.066 98.883 51.228C98.872 51.39 98.865 51.519 98.865 51.612C98.865 53.888 99.5507 55.293 100.922 55.827C101.099 55.8979 101.288 55.9319 101.479 55.927C102.18 55.8847 102.853 55.6359 103.413 55.212C104.179 54.6792 104.855 54.0261 105.413 53.278C106.029 52.426 106.571 51.5227 107.033 50.578C107.355 49.9853 107.634 49.3708 107.87 48.739C108.078 48.8162 108.294 48.8663 108.515 48.888C109.258 48.9347 109.63 48.9927 109.63 49.062C109.6 49.4722 109.543 49.8798 109.457 50.282C109.332 51.0421 109.273 51.8117 109.282 52.582C109.206 54.1451 109.383 55.7102 109.805 57.217C110.178 58.217 110.711 58.717 111.405 58.717C111.677 58.697 111.94 58.6061 112.166 58.4533C112.393 58.3006 112.575 58.0912 112.696 57.846C113.437 56.4098 113.999 54.8881 114.37 53.315C114.717 52.139 115.001 50.9453 115.221 49.739H115.23C115.23 49.739 115.252 49.616 115.278 49.445ZM101.637 48.58C101.944 48.0123 102.287 47.4652 102.665 46.942L103.222 46.176L103.292 46.733V46.803C103.24 47.5128 102.992 48.1943 102.576 48.772C102.101 49.5273 101.678 49.9047 101.305 49.904C101.166 49.904 101.096 49.87 101.096 49.804C101.208 49.3685 101.392 48.9547 101.64 48.58H101.637ZM38.347 43.28C39.0868 40.5031 40.2056 37.8414 41.672 35.37C43.194 32.77 44.617 31.0857 45.941 30.317C46.3585 30.023 46.8336 29.8209 47.335 29.724C47.684 29.724 47.871 30.131 47.893 30.944V31.119C47.7824 32.6581 47.3425 34.1556 46.603 35.51C45.741 37.303 44.6521 38.9777 43.363 40.493C42.5923 41.4139 41.7721 42.2922 40.906 43.124C40.1849 43.8598 39.4101 44.541 38.588 45.162C38.4203 45.3218 38.2181 45.4409 37.997 45.51C37.949 45.51 37.927 45.429 37.927 45.266C37.996 44.5923 38.1364 43.9279 38.346 43.284L38.347 43.28ZM39.356 50.98C39.356 50.6773 39.7627 50.144 40.576 49.38C40.7902 49.1259 41.0855 48.9536 41.412 48.892C41.505 48.892 41.551 48.95 41.551 49.066C41.551 49.508 41.203 49.9843 40.507 50.495C40.2023 50.754 39.8451 50.9441 39.46 51.052C39.391 51.051 39.355 51.032 39.355 50.985L39.356 50.98ZM65.94 46.141C66.6807 43.3666 67.66 40.6615 68.867 38.056C70.3543 34.664 71.2957 32.9683 71.691 32.969C71.7333 33.1399 71.7451 33.317 71.726 33.492C71.726 33.98 71.7143 34.3747 71.691 34.676C71.5058 36.833 70.8893 38.9308 69.878 40.845C69.3222 41.9357 68.7055 42.9944 68.031 44.016C67.5479 44.8215 66.9748 45.5697 66.323 46.246L65.801 46.768L65.94 46.141ZM77.054 48.341C76.7124 48.3123 76.3834 48.1985 76.097 48.01C75.7883 47.8592 75.5289 47.6237 75.349 47.331C75.2061 47.0378 75.1338 46.7152 75.138 46.389C75.0959 45.9366 75.2343 45.4858 75.523 45.135C75.823 44.835 76.033 44.682 76.149 44.682C76.265 44.682 76.417 44.799 76.602 45.031C77.1785 45.7617 77.4635 46.6803 77.402 47.609C77.403 48.092 77.287 48.337 77.054 48.337V48.341ZM95.313 45.241C95.313 45.334 95.279 45.38 95.213 45.38C95.003 45.358 94.9 45.125 94.9 44.68C94.877 44.4483 94.9455 44.2168 95.091 44.035C95.22 43.908 95.291 43.935 95.316 44.123C95.3639 44.4931 95.3639 44.8679 95.316 45.238L95.313 45.241ZM107.961 45.798C107.774 46.4947 107.587 46.843 107.402 46.843H107.296C107.165 46.775 107.058 46.6683 106.99 46.5376C106.922 46.4069 106.895 46.2583 106.914 46.112C106.911 45.7624 107.004 45.4188 107.182 45.118C107.361 44.8173 107.617 44.5708 107.925 44.405C107.979 44.3726 108.038 44.349 108.1 44.335C108.17 44.335 108.2 44.417 108.2 44.579C108.171 44.992 108.091 45.3998 107.961 45.793V45.798Z" fill="#40D4D9"/>
</svg>
